<?xml version="1.0" encoding="utf-8"?>
<!-- Generator: Adobe Illustrator 23.0.1, SVG Export Plug-In . SVG Version: 6.00 Build 0)  -->
<svg version="1.1" id="Layer_1" xmlns="http://www.w3.org/2000/svg" xmlns:xlink="http://www.w3.org/1999/xlink" x="0px" y="0px"
	 viewBox="0 0 1024 1024" style="enable-background:new 0 0 1024 1024;" xml:space="preserve">
<style type="text/css">
	.st0{fill:#384459;}
</style>
<path class="st0" d="M512,11.52C235.59,11.52,11.52,235.59,11.52,512c0,276.41,224.07,500.48,500.48,500.48
	c276.41,0,500.48-224.07,500.48-500.48C1012.48,235.59,788.41,11.52,512,11.52z M720.21,847.19c-21.14,12.24-42.84,22.45-65.1,30.6
	c-22.26,8.17-45.45,14.29-69.55,18.36c-24.11,4.07-50.27,6.12-78.45,6.12c-51.93,0-99.59-9.46-142.99-28.38
	c-43.4-18.92-80.68-45.62-111.83-80.12c-31.16-34.49-55.47-75.84-72.89-124.07c-17.44-48.21-26.15-101.26-26.15-159.12
	c0-63.79,10.57-119.43,31.71-166.91c21.14-47.47,48.96-87.16,83.46-119.07c34.49-31.88,74-55.64,118.51-71.22
	c44.51-15.58,90.5-23.37,137.98-23.37c46.74,0,89.2,4.84,127.41,14.47c38.2,9.65,78.06,24.12,119.62,43.4
	c-5.94,25.98-9.46,53.41-10.57,82.34c-1.11,28.93-1.67,58.98-1.67,90.13c-9.65,3.72-18.92,6.31-27.82,7.79
	c-8.9,1.49-19.3,2.23-31.16,2.23c-1.5-39.32-6.31-71.58-14.47-96.81c-8.17-25.21-19.47-45.07-33.94-59.53
	c-14.47-14.47-31.71-24.48-51.74-30.05c-20.03-5.56-42.29-8.34-66.77-8.34c-46.73,0-86.79,8.53-120.18,25.59
	c-33.38,17.08-60.65,39.88-81.79,68.43c-21.14,28.57-36.72,61.2-46.73,97.92c-10.02,36.72-15.02,74.38-15.02,112.95
	c0,49.71,6.48,96.08,19.47,139.1c12.97,43.03,31.52,80.5,55.64,112.39c24.1,31.91,53.78,56.94,89.02,75.12
	c35.22,18.18,75.11,27.26,119.62,27.26c35.61,0,71.95-5.93,109.05-17.8c37.09-11.86,71.22-27.82,102.37-47.85
	c4.45,3.72,8.71,9.1,12.8,16.14c4.07,7.06,6.48,13.18,7.23,18.36C763.05,820.3,741.35,834.94,720.21,847.19z M609.68,591.6
	c-11.23-13.66-25.26-25.5-42.1-35.51c-16.84-10-35.14-19.51-54.91-28.55c-19.77-9.02-38.07-19.77-54.91-32.21
	c-16.84-12.45-30.87-27.93-42.1-46.49c-11.23-18.54-16.84-42.7-16.84-72.48c0-19.04,3.29-36.48,9.88-52.35
	c6.59-15.86,15.74-29.53,27.45-41c11.71-11.46,25.74-20.24,42.1-26.35c16.34-6.1,34.52-9.15,54.54-9.15
	c27.33,0,50.75,3.29,70.28,9.88c19.51,6.59,34.41,14.03,44.66,22.33c0,14.16,0.24,30.51,0.73,49.05
	c0.48,18.55,1.71,34.41,3.66,47.59c-5.37,2.45-11.84,4.15-19.4,5.12c-7.57,0.99-14.77,1.46-21.6,1.46
	c-3.91-20.98-8.31-38.18-13.18-51.61c-4.88-13.42-10.62-23.91-17.2-31.48c-6.59-7.56-13.91-12.81-21.96-15.74
	c-8.05-2.92-16.72-4.39-25.99-4.39c-21.96,0-39.3,6.35-51.98,19.04c-12.7,12.7-19.04,30.75-19.04,54.18
	c0,21.48,5.6,39.05,16.84,52.71c11.22,13.67,25.26,25.88,42.1,36.6c16.84,10.74,35.02,20.87,54.54,30.39
	c19.51,9.52,37.7,20.49,54.54,32.94c16.84,12.45,30.86,27.46,42.09,45.03c11.22,17.57,16.84,39.78,16.84,66.62
	c0,18.56-3.79,36.24-11.35,53.08c-7.57,16.84-17.94,31.61-31.11,44.29c-13.18,12.7-28.81,22.69-46.86,30.01
	c-18.06,7.32-37.83,10.98-59.3,10.98c-17.09,0-32.1-0.86-45.03-2.56c-12.94-1.72-24.89-4.4-35.87-8.06
	c-10.98-3.66-21.96-8.42-32.95-14.27c-10.98-5.86-23.31-13.18-36.97-21.97c2.93-18.55,4.76-37.08,5.49-55.64
	c0.74-18.55,1.1-34.65,1.1-48.32c5.37-1.47,11.71-2.56,19.04-3.3c7.32-0.73,14.15-1.1,20.5-1.1c0.97,18.55,3.41,35.15,7.32,49.79
	c3.9,14.64,9.88,27.21,17.94,37.7c8.05,10.5,18.78,18.55,32.21,24.16c13.42,5.62,30.39,8.42,50.88,8.42
	c13.66,0,25.62-2.07,35.87-6.23c10.25-4.14,18.78-9.63,25.62-16.47c6.83-6.83,12.08-14.76,15.74-23.79
	c3.66-9.03,5.49-18.67,5.49-28.92C626.52,623.08,620.91,605.27,609.68,591.6z"/>
</svg>
